<svg id="visual" viewBox="0 0 960 540" width="960" height="540" xmlns="http://www.w3.org/2000/svg" xmlns:xlink="http://www.w3.org/1999/xlink" version="1.1"><rect x="0" y="0" width="960" height="540" fill="#CCCCCC"></rect><defs><linearGradient id="grad1_0" x1="43.8%" y1="100%" x2="100%" y2="0%"><stop offset="14.444444444444446%" stop-color="#cccccc" stop-opacity="1"></stop><stop offset="85.55555555555554%" stop-color="#cccccc" stop-opacity="1"></stop></linearGradient></defs><defs><linearGradient id="grad2_0" x1="0%" y1="100%" x2="56.3%" y2="0%"><stop offset="14.444444444444446%" stop-color="#cccccc" stop-opacity="1"></stop><stop offset="85.55555555555554%" stop-color="#cccccc" stop-opacity="1"></stop></linearGradient></defs><g transform="translate(960, 540)"><path d="M-162 0C-160.9 -33.8 -159.8 -67.5 -140.3 -81C-120.8 -94.5 -82.9 -87.7 -56.5 -97.9C-30.1 -108 -15 -135 0 -162L0 0Z" fill="#de6603"></path></g><g transform="translate(0, 0)"><path d="M162 0C146.1 21.4 130.2 42.9 118.6 68.5C107.1 94.1 100 124 81 140.3C62 156.6 31 159.3 0 162L0 0Z" fill="#de6603"></path></g></svg>